<?xml version="1.0" encoding="UTF-8" standalone="no"?><!DOCTYPE svg PUBLIC "-//W3C//DTD SVG 1.1//EN" "http://www.w3.org/Graphics/SVG/1.1/DTD/svg11.dtd"><svg width="100%" height="100%" viewBox="0 0 604 563" version="1.1" xmlns="http://www.w3.org/2000/svg" xmlns:xlink="http://www.w3.org/1999/xlink" xml:space="preserve" xmlns:serif="http://www.serif.com/" style="fill-rule:evenodd;clip-rule:evenodd;stroke-linecap:round;stroke-linejoin:round;stroke-miterlimit:1.5;"><rect id="Artboard1" x="0" y="0" width="603.267" height="562.235" style="fill:none;"/><clipPath id="_clip1"><rect x="0" y="0" width="603.267" height="562.235"/></clipPath><g clip-path="url(#_clip1)"><path id="outerCircle" d="M301.617,0.013c166.467,0 301.616,125.96 301.616,281.108c0,155.148 -135.149,281.108 -301.616,281.108c-166.466,0 -301.615,-125.96 -301.615,-281.108c0,-155.148 135.149,-281.108 301.615,-281.108Zm0,7.756c161.873,0 293.294,122.485 293.294,273.352c0,150.867 -131.421,273.352 -293.294,273.352c-161.872,0 -293.293,-122.485 -293.293,-273.352c0,-150.867 131.421,-273.352 293.293,-273.352Z" style="fill:#fff;stroke:#fff;stroke-width:3.75px;"/><path id="Curve" d="M118.426,450.457l185.864,-399.539l179.363,399.579l-61.957,-0.062l-118.518,-272.477l-123.965,272.515l-60.787,-0.016Z" style="fill:none;stroke:#fff;stroke-width:3.54px;"/><path id="middle" d="M335.048,325.481l-66.662,0l11.557,-32.132l43.548,0l11.557,32.132Z" style="fill:none;stroke:#fff;stroke-width:3.96px;"/></g></svg>